<mxfile host="65bd71144e">
    <diagram id="goXzynlmPpRwK6h3w4ba" name="Page-1">
        <mxGraphModel dx="1638" dy="926" grid="0" gridSize="10" guides="1" tooltips="1" connect="1" arrows="1" fold="1" page="0" pageScale="1" pageWidth="850" pageHeight="1100" math="0" shadow="0">
            <root>
                <mxCell id="0"/>
                <mxCell id="1" parent="0"/>
                <mxCell id="2" value="&lt;font color=&quot;#ffffff&quot;&gt;External Program &lt;br&gt;Actors&lt;/font&gt;" style="shape=umlActor;verticalLabelPosition=bottom;verticalAlign=top;html=1;outlineConnect=0;" parent="1" vertex="1">
                    <mxGeometry x="80" y="40" width="30" height="60" as="geometry"/>
                </mxCell>
                <mxCell id="14" style="edgeStyle=none;html=1;exitX=1;exitY=0.5;exitDx=0;exitDy=0;entryX=0;entryY=0.5;entryDx=0;entryDy=0;strokeColor=#30F000;" parent="1" source="5" target="13" edge="1">
                    <mxGeometry relative="1" as="geometry">
                        <Array as="points">
                            <mxPoint x="340" y="80"/>
                            <mxPoint x="340" y="180"/>
                        </Array>
                    </mxGeometry>
                </mxCell>
                <mxCell id="5" value="Module Object" style="whiteSpace=wrap;html=1;aspect=fixed;" parent="1" vertex="1">
                    <mxGeometry x="200" y="40" width="80" height="80" as="geometry"/>
                </mxCell>
                <mxCell id="15" value="Queue Request" style="edgeStyle=none;html=1;exitX=1;exitY=0.5;exitDx=0;exitDy=0;strokeColor=#30F000;" parent="1" source="6" edge="1">
                    <mxGeometry x="-0.1667" relative="1" as="geometry">
                        <mxPoint x="460" y="180" as="targetPoint"/>
                        <mxPoint as="offset"/>
                    </mxGeometry>
                </mxCell>
                <mxCell id="6" value="IE Virtual GPIO Module" style="whiteSpace=wrap;html=1;aspect=fixed;" parent="1" vertex="1">
                    <mxGeometry x="200" y="140" width="80" height="80" as="geometry"/>
                </mxCell>
                <mxCell id="16" style="edgeStyle=none;html=1;exitX=1;exitY=0.5;exitDx=0;exitDy=0;entryX=0;entryY=0.5;entryDx=0;entryDy=0;strokeColor=#30F000;" parent="1" source="7" target="13" edge="1">
                    <mxGeometry relative="1" as="geometry">
                        <Array as="points">
                            <mxPoint x="340" y="280"/>
                            <mxPoint x="340" y="180"/>
                        </Array>
                    </mxGeometry>
                </mxCell>
                <mxCell id="7" value="Module Object" style="whiteSpace=wrap;html=1;aspect=fixed;" parent="1" vertex="1">
                    <mxGeometry x="200" y="240" width="80" height="80" as="geometry"/>
                </mxCell>
                <mxCell id="10" value="" style="endArrow=classic;startArrow=classic;html=1;exitX=1;exitY=0.3333333333333333;exitDx=0;exitDy=0;exitPerimeter=0;entryX=0;entryY=0.5;entryDx=0;entryDy=0;" parent="1" source="2" target="5" edge="1">
                    <mxGeometry width="50" height="50" relative="1" as="geometry">
                        <mxPoint x="460" y="220" as="sourcePoint"/>
                        <mxPoint x="510" y="170" as="targetPoint"/>
                        <Array as="points">
                            <mxPoint x="160" y="60"/>
                            <mxPoint x="160" y="80"/>
                        </Array>
                    </mxGeometry>
                </mxCell>
                <mxCell id="11" value="" style="endArrow=classic;startArrow=classic;html=1;entryX=0;entryY=0.5;entryDx=0;entryDy=0;exitX=1;exitY=0.3333333333333333;exitDx=0;exitDy=0;exitPerimeter=0;" parent="1" source="2" target="6" edge="1">
                    <mxGeometry width="50" height="50" relative="1" as="geometry">
                        <mxPoint x="120" y="60" as="sourcePoint"/>
                        <mxPoint x="210" y="90" as="targetPoint"/>
                        <Array as="points">
                            <mxPoint x="160" y="60"/>
                            <mxPoint x="160" y="180"/>
                        </Array>
                    </mxGeometry>
                </mxCell>
                <mxCell id="12" value="Function Calls" style="endArrow=classic;startArrow=classic;html=1;entryX=0;entryY=0.5;entryDx=0;entryDy=0;exitX=1;exitY=0.3333333333333333;exitDx=0;exitDy=0;exitPerimeter=0;" parent="1" source="2" target="7" edge="1">
                    <mxGeometry x="-0.4839" width="50" height="50" relative="1" as="geometry">
                        <mxPoint x="110" y="60" as="sourcePoint"/>
                        <mxPoint x="210" y="190" as="targetPoint"/>
                        <Array as="points">
                            <mxPoint x="160" y="60"/>
                            <mxPoint x="160" y="280"/>
                        </Array>
                        <mxPoint as="offset"/>
                    </mxGeometry>
                </mxCell>
                <mxCell id="17" value="Return Request Responce" style="edgeStyle=none;html=1;exitX=0.5;exitY=0;exitDx=0;exitDy=0;entryX=1;entryY=0.25;entryDx=0;entryDy=0;strokeColor=#0008F0;" parent="1" source="13" target="5" edge="1">
                    <mxGeometry relative="1" as="geometry">
                        <Array as="points">
                            <mxPoint x="530" y="60"/>
                        </Array>
                    </mxGeometry>
                </mxCell>
                <mxCell id="18" style="edgeStyle=none;html=1;exitX=0.5;exitY=0;exitDx=0;exitDy=0;entryX=1;entryY=0.25;entryDx=0;entryDy=0;strokeColor=#0008F0;" parent="1" source="13" target="6" edge="1">
                    <mxGeometry relative="1" as="geometry">
                        <Array as="points">
                            <mxPoint x="530" y="120"/>
                            <mxPoint x="390" y="120"/>
                            <mxPoint x="390" y="160"/>
                        </Array>
                    </mxGeometry>
                </mxCell>
                <mxCell id="19" style="edgeStyle=none;html=1;exitX=0.5;exitY=0;exitDx=0;exitDy=0;entryX=1;entryY=0.25;entryDx=0;entryDy=0;strokeColor=#0008F0;" parent="1" source="13" target="7" edge="1">
                    <mxGeometry relative="1" as="geometry">
                        <Array as="points">
                            <mxPoint x="530" y="120"/>
                            <mxPoint x="390" y="120"/>
                            <mxPoint x="390" y="260"/>
                        </Array>
                    </mxGeometry>
                </mxCell>
                <mxCell id="20" style="edgeStyle=none;html=1;exitX=0.5;exitY=1;exitDx=0;exitDy=0;entryX=1;entryY=0.75;entryDx=0;entryDy=0;strokeColor=#F00000;" parent="1" source="13" target="5" edge="1">
                    <mxGeometry relative="1" as="geometry">
                        <Array as="points">
                            <mxPoint x="530" y="260"/>
                            <mxPoint x="440" y="260"/>
                            <mxPoint x="440" y="100"/>
                        </Array>
                    </mxGeometry>
                </mxCell>
                <mxCell id="21" style="edgeStyle=none;html=1;exitX=0.5;exitY=1;exitDx=0;exitDy=0;entryX=1;entryY=0.75;entryDx=0;entryDy=0;strokeColor=#F00000;" parent="1" source="13" target="6" edge="1">
                    <mxGeometry relative="1" as="geometry">
                        <Array as="points">
                            <mxPoint x="530" y="260"/>
                            <mxPoint x="440" y="260"/>
                            <mxPoint x="440" y="200"/>
                        </Array>
                    </mxGeometry>
                </mxCell>
                <mxCell id="22" value="Maintain State Concurency" style="edgeStyle=none;html=1;exitX=0.5;exitY=1;exitDx=0;exitDy=0;entryX=1;entryY=0.75;entryDx=0;entryDy=0;strokeColor=#F00000;" parent="1" source="13" target="7" edge="1">
                    <mxGeometry relative="1" as="geometry">
                        <Array as="points">
                            <mxPoint x="530" y="300"/>
                            <mxPoint x="480" y="300"/>
                            <mxPoint x="430" y="300"/>
                        </Array>
                    </mxGeometry>
                </mxCell>
                <mxCell id="13" value="Transport Agent" style="shape=process;whiteSpace=wrap;html=1;backgroundOutline=1;" parent="1" vertex="1">
                    <mxGeometry x="470" y="150" width="120" height="60" as="geometry"/>
                </mxCell>
                <mxCell id="25" value="" style="endArrow=none;html=1;strokeColor=#FFFFFF;" parent="1" edge="1">
                    <mxGeometry width="50" height="50" relative="1" as="geometry">
                        <mxPoint x="30" y="340" as="sourcePoint"/>
                        <mxPoint x="30" as="targetPoint"/>
                    </mxGeometry>
                </mxCell>
                <mxCell id="26" value="" style="endArrow=none;html=1;strokeColor=#FFFFFF;" parent="1" edge="1">
                    <mxGeometry width="50" height="50" relative="1" as="geometry">
                        <mxPoint x="150" y="340" as="sourcePoint"/>
                        <mxPoint x="150" as="targetPoint"/>
                    </mxGeometry>
                </mxCell>
                <mxCell id="27" value="Aplication Layer" style="text;html=1;strokeColor=none;fillColor=none;align=center;verticalAlign=middle;whiteSpace=wrap;rounded=0;" parent="1" vertex="1">
                    <mxGeometry x="52" width="60" height="30" as="geometry"/>
                </mxCell>
                <mxCell id="30" value="" style="endArrow=none;html=1;strokeColor=#FFFFFF;" parent="1" edge="1">
                    <mxGeometry width="50" height="50" relative="1" as="geometry">
                        <mxPoint x="540" y="340" as="sourcePoint"/>
                        <mxPoint x="540" as="targetPoint"/>
                    </mxGeometry>
                </mxCell>
                <mxCell id="31" value="Virtualization Layer" style="text;html=1;strokeColor=none;fillColor=none;align=center;verticalAlign=middle;whiteSpace=wrap;rounded=0;" parent="1" vertex="1">
                    <mxGeometry x="330" width="60" height="30" as="geometry"/>
                </mxCell>
                <mxCell id="32" value="UDP/TCP Over IP" style="shape=link;html=1;strokeColor=#FFFFFF;exitX=1;exitY=0.5;exitDx=0;exitDy=0;entryX=0;entryY=0.5;entryDx=0;entryDy=0;" parent="1" source="13" target="33" edge="1">
                    <mxGeometry width="100" relative="1" as="geometry">
                        <mxPoint x="690" y="250" as="sourcePoint"/>
                        <mxPoint x="690" y="179.5" as="targetPoint"/>
                    </mxGeometry>
                </mxCell>
                <mxCell id="33" value="Network&lt;br&gt;Hub" style="rhombus;whiteSpace=wrap;html=1;" parent="1" vertex="1">
                    <mxGeometry x="770" y="140" width="80" height="80" as="geometry"/>
                </mxCell>
                <mxCell id="34" value="Transport Layer" style="text;html=1;strokeColor=none;fillColor=none;align=center;verticalAlign=middle;whiteSpace=wrap;rounded=0;" parent="1" vertex="1">
                    <mxGeometry x="810" width="60" height="30" as="geometry"/>
                </mxCell>
                <mxCell id="35" value="W5500&lt;br&gt;Chip" style="shape=cylinder3;whiteSpace=wrap;html=1;boundedLbl=1;backgroundOutline=1;size=15;" parent="1" vertex="1">
                    <mxGeometry x="1030" y="60" width="60" height="80" as="geometry"/>
                </mxCell>
                <mxCell id="36" value="" style="shape=link;html=1;strokeColor=#FFFFFF;exitX=1;exitY=0;exitDx=0;exitDy=0;entryX=0;entryY=0.5;entryDx=0;entryDy=0;entryPerimeter=0;" parent="1" source="33" target="35" edge="1">
                    <mxGeometry width="100" relative="1" as="geometry">
                        <mxPoint x="920" y="290" as="sourcePoint"/>
                        <mxPoint x="1020" y="290" as="targetPoint"/>
                        <Array as="points">
                            <mxPoint x="830" y="100"/>
                        </Array>
                    </mxGeometry>
                </mxCell>
                <mxCell id="37" value="UDP/TCP Over IP" style="edgeLabel;html=1;align=center;verticalAlign=middle;resizable=0;points=[];" parent="36" vertex="1" connectable="0">
                    <mxGeometry x="0.3385" y="3" relative="1" as="geometry">
                        <mxPoint as="offset"/>
                    </mxGeometry>
                </mxCell>
                <mxCell id="43" value="GPIO" style="edgeStyle=none;html=1;exitX=1;exitY=0.5;exitDx=0;exitDy=0;entryX=0;entryY=0.5;entryDx=0;entryDy=0;strokeColor=#FFFFFF;" parent="1" source="38" target="42" edge="1">
                    <mxGeometry relative="1" as="geometry"/>
                </mxCell>
                <mxCell id="38" value="ATMEGA" style="shape=parallelogram;perimeter=parallelogramPerimeter;whiteSpace=wrap;html=1;fixedSize=1;" parent="1" vertex="1">
                    <mxGeometry x="1180" y="70" width="120" height="60" as="geometry"/>
                </mxCell>
                <mxCell id="41" value="SPI" style="endArrow=classic;startArrow=classic;html=1;strokeColor=#FFFFFF;entryX=1;entryY=0.5;entryDx=0;entryDy=0;entryPerimeter=0;exitX=0;exitY=0.5;exitDx=0;exitDy=0;" parent="1" source="38" target="35" edge="1">
                    <mxGeometry width="50" height="50" relative="1" as="geometry">
                        <mxPoint x="1010" y="300" as="sourcePoint"/>
                        <mxPoint x="1060" y="250" as="targetPoint"/>
                    </mxGeometry>
                </mxCell>
                <mxCell id="42" value="IO&lt;br&gt;Interface" style="triangle;whiteSpace=wrap;html=1;" parent="1" vertex="1">
                    <mxGeometry x="1350" y="60" width="110" height="80" as="geometry"/>
                </mxCell>
                <mxCell id="44" value="" style="endArrow=none;dashed=1;html=1;dashPattern=1 3;strokeWidth=2;strokeColor=#FFFFFF;" parent="1" edge="1">
                    <mxGeometry width="50" height="50" relative="1" as="geometry">
                        <mxPoint x="1000" y="40" as="sourcePoint"/>
                        <mxPoint x="1480" y="40" as="targetPoint"/>
                    </mxGeometry>
                </mxCell>
                <mxCell id="45" value="" style="endArrow=none;dashed=1;html=1;dashPattern=1 3;strokeWidth=2;strokeColor=#FFFFFF;" parent="1" edge="1">
                    <mxGeometry width="50" height="50" relative="1" as="geometry">
                        <mxPoint x="1000" y="160" as="sourcePoint"/>
                        <mxPoint x="1480" y="160" as="targetPoint"/>
                    </mxGeometry>
                </mxCell>
                <mxCell id="46" value="" style="endArrow=none;dashed=1;html=1;dashPattern=1 3;strokeWidth=2;strokeColor=#FFFFFF;" parent="1" edge="1">
                    <mxGeometry width="50" height="50" relative="1" as="geometry">
                        <mxPoint x="1000" y="160" as="sourcePoint"/>
                        <mxPoint x="1000" y="40" as="targetPoint"/>
                    </mxGeometry>
                </mxCell>
                <mxCell id="47" value="" style="endArrow=none;dashed=1;html=1;dashPattern=1 3;strokeWidth=2;strokeColor=#FFFFFF;" parent="1" edge="1">
                    <mxGeometry width="50" height="50" relative="1" as="geometry">
                        <mxPoint x="1480" y="40" as="sourcePoint"/>
                        <mxPoint x="1480" y="160" as="targetPoint"/>
                    </mxGeometry>
                </mxCell>
                <mxCell id="48" value="Embeded Layer" style="text;html=1;strokeColor=none;fillColor=none;align=center;verticalAlign=middle;whiteSpace=wrap;rounded=0;" parent="1" vertex="1">
                    <mxGeometry x="1330" width="60" height="30" as="geometry"/>
                </mxCell>
                <mxCell id="49" value="" style="endArrow=none;html=1;strokeColor=#FFFFFF;" parent="1" edge="1">
                    <mxGeometry width="50" height="50" relative="1" as="geometry">
                        <mxPoint x="1500" y="430" as="sourcePoint"/>
                        <mxPoint x="1500" as="targetPoint"/>
                    </mxGeometry>
                </mxCell>
                <mxCell id="50" value="ROI Module" style="text;html=1;strokeColor=none;fillColor=none;align=center;verticalAlign=middle;whiteSpace=wrap;rounded=0;" parent="1" vertex="1">
                    <mxGeometry x="1110" y="55" width="60" height="30" as="geometry"/>
                </mxCell>
                <mxCell id="51" value="W5500&lt;br&gt;Chip" style="shape=cylinder3;whiteSpace=wrap;html=1;boundedLbl=1;backgroundOutline=1;size=15;" parent="1" vertex="1">
                    <mxGeometry x="1029.5" y="190" width="60" height="80" as="geometry"/>
                </mxCell>
                <mxCell id="52" value="GPIO" style="edgeStyle=none;html=1;exitX=1;exitY=0.5;exitDx=0;exitDy=0;entryX=0;entryY=0.5;entryDx=0;entryDy=0;strokeColor=#FFFFFF;" parent="1" source="53" target="55" edge="1">
                    <mxGeometry relative="1" as="geometry"/>
                </mxCell>
                <mxCell id="53" value="ATMEGA" style="shape=parallelogram;perimeter=parallelogramPerimeter;whiteSpace=wrap;html=1;fixedSize=1;" parent="1" vertex="1">
                    <mxGeometry x="1179.5" y="200" width="120" height="60" as="geometry"/>
                </mxCell>
                <mxCell id="54" value="SPI" style="endArrow=classic;startArrow=classic;html=1;strokeColor=#FFFFFF;entryX=1;entryY=0.5;entryDx=0;entryDy=0;entryPerimeter=0;exitX=0;exitY=0.5;exitDx=0;exitDy=0;" parent="1" source="53" target="51" edge="1">
                    <mxGeometry width="50" height="50" relative="1" as="geometry">
                        <mxPoint x="1009.5" y="430" as="sourcePoint"/>
                        <mxPoint x="1059.5" y="380" as="targetPoint"/>
                    </mxGeometry>
                </mxCell>
                <mxCell id="55" value="IO&lt;br&gt;Interface" style="triangle;whiteSpace=wrap;html=1;" parent="1" vertex="1">
                    <mxGeometry x="1349.5" y="190" width="110" height="80" as="geometry"/>
                </mxCell>
                <mxCell id="56" value="" style="endArrow=none;dashed=1;html=1;dashPattern=1 3;strokeWidth=2;strokeColor=#FFFFFF;" parent="1" edge="1">
                    <mxGeometry width="50" height="50" relative="1" as="geometry">
                        <mxPoint x="999.5" y="170" as="sourcePoint"/>
                        <mxPoint x="1479.5" y="170" as="targetPoint"/>
                    </mxGeometry>
                </mxCell>
                <mxCell id="57" value="" style="endArrow=none;dashed=1;html=1;dashPattern=1 3;strokeWidth=2;strokeColor=#FFFFFF;" parent="1" edge="1">
                    <mxGeometry width="50" height="50" relative="1" as="geometry">
                        <mxPoint x="999.5" y="290" as="sourcePoint"/>
                        <mxPoint x="1479.5" y="290" as="targetPoint"/>
                    </mxGeometry>
                </mxCell>
                <mxCell id="58" value="" style="endArrow=none;dashed=1;html=1;dashPattern=1 3;strokeWidth=2;strokeColor=#FFFFFF;" parent="1" edge="1">
                    <mxGeometry width="50" height="50" relative="1" as="geometry">
                        <mxPoint x="999.5" y="290" as="sourcePoint"/>
                        <mxPoint x="999.5" y="170" as="targetPoint"/>
                    </mxGeometry>
                </mxCell>
                <mxCell id="59" value="" style="endArrow=none;dashed=1;html=1;dashPattern=1 3;strokeWidth=2;strokeColor=#FFFFFF;" parent="1" edge="1">
                    <mxGeometry width="50" height="50" relative="1" as="geometry">
                        <mxPoint x="1479.5" y="170" as="sourcePoint"/>
                        <mxPoint x="1479.5" y="290" as="targetPoint"/>
                    </mxGeometry>
                </mxCell>
                <mxCell id="60" value="ROI Module" style="text;html=1;strokeColor=none;fillColor=none;align=center;verticalAlign=middle;whiteSpace=wrap;rounded=0;" parent="1" vertex="1">
                    <mxGeometry x="1109.5" y="185" width="60" height="30" as="geometry"/>
                </mxCell>
                <mxCell id="61" value="W5500&lt;br&gt;Chip" style="shape=cylinder3;whiteSpace=wrap;html=1;boundedLbl=1;backgroundOutline=1;size=15;" parent="1" vertex="1">
                    <mxGeometry x="1029" y="320" width="60" height="80" as="geometry"/>
                </mxCell>
                <mxCell id="62" value="GPIO" style="edgeStyle=none;html=1;exitX=1;exitY=0.5;exitDx=0;exitDy=0;entryX=0;entryY=0.5;entryDx=0;entryDy=0;strokeColor=#FFFFFF;" parent="1" source="63" target="65" edge="1">
                    <mxGeometry relative="1" as="geometry"/>
                </mxCell>
                <mxCell id="63" value="ATMEGA" style="shape=parallelogram;perimeter=parallelogramPerimeter;whiteSpace=wrap;html=1;fixedSize=1;" parent="1" vertex="1">
                    <mxGeometry x="1179" y="330" width="120" height="60" as="geometry"/>
                </mxCell>
                <mxCell id="64" value="SPI" style="endArrow=classic;startArrow=classic;html=1;strokeColor=#FFFFFF;entryX=1;entryY=0.5;entryDx=0;entryDy=0;entryPerimeter=0;exitX=0;exitY=0.5;exitDx=0;exitDy=0;" parent="1" source="63" target="61" edge="1">
                    <mxGeometry width="50" height="50" relative="1" as="geometry">
                        <mxPoint x="1009" y="560" as="sourcePoint"/>
                        <mxPoint x="1059" y="510" as="targetPoint"/>
                    </mxGeometry>
                </mxCell>
                <mxCell id="65" value="IO&lt;br&gt;Interface" style="triangle;whiteSpace=wrap;html=1;" parent="1" vertex="1">
                    <mxGeometry x="1349" y="320" width="110" height="80" as="geometry"/>
                </mxCell>
                <mxCell id="66" value="" style="endArrow=none;dashed=1;html=1;dashPattern=1 3;strokeWidth=2;strokeColor=#FFFFFF;" parent="1" edge="1">
                    <mxGeometry width="50" height="50" relative="1" as="geometry">
                        <mxPoint x="999" y="300" as="sourcePoint"/>
                        <mxPoint x="1479" y="300" as="targetPoint"/>
                    </mxGeometry>
                </mxCell>
                <mxCell id="67" value="" style="endArrow=none;dashed=1;html=1;dashPattern=1 3;strokeWidth=2;strokeColor=#FFFFFF;" parent="1" edge="1">
                    <mxGeometry width="50" height="50" relative="1" as="geometry">
                        <mxPoint x="999" y="420" as="sourcePoint"/>
                        <mxPoint x="1479" y="420" as="targetPoint"/>
                    </mxGeometry>
                </mxCell>
                <mxCell id="68" value="" style="endArrow=none;dashed=1;html=1;dashPattern=1 3;strokeWidth=2;strokeColor=#FFFFFF;" parent="1" edge="1">
                    <mxGeometry width="50" height="50" relative="1" as="geometry">
                        <mxPoint x="999" y="420" as="sourcePoint"/>
                        <mxPoint x="999" y="300" as="targetPoint"/>
                    </mxGeometry>
                </mxCell>
                <mxCell id="69" value="" style="endArrow=none;dashed=1;html=1;dashPattern=1 3;strokeWidth=2;strokeColor=#FFFFFF;" parent="1" edge="1">
                    <mxGeometry width="50" height="50" relative="1" as="geometry">
                        <mxPoint x="1479" y="300" as="sourcePoint"/>
                        <mxPoint x="1479" y="420" as="targetPoint"/>
                    </mxGeometry>
                </mxCell>
                <mxCell id="70" value="ROI Module" style="text;html=1;strokeColor=none;fillColor=none;align=center;verticalAlign=middle;whiteSpace=wrap;rounded=0;" parent="1" vertex="1">
                    <mxGeometry x="1109" y="315" width="60" height="30" as="geometry"/>
                </mxCell>
                <mxCell id="39" value="" style="endArrow=none;html=1;strokeColor=#FFFFFF;" parent="1" edge="1">
                    <mxGeometry width="50" height="50" relative="1" as="geometry">
                        <mxPoint x="1200" y="430" as="sourcePoint"/>
                        <mxPoint x="1200" as="targetPoint"/>
                    </mxGeometry>
                </mxCell>
                <mxCell id="72" value="" style="shape=link;html=1;strokeColor=#FFFFFF;exitX=1;exitY=0.5;exitDx=0;exitDy=0;entryX=0;entryY=0.5;entryDx=0;entryDy=0;entryPerimeter=0;" parent="1" source="33" target="51" edge="1">
                    <mxGeometry width="100" relative="1" as="geometry">
                        <mxPoint x="900" y="280" as="sourcePoint"/>
                        <mxPoint x="1000" y="280" as="targetPoint"/>
                        <Array as="points">
                            <mxPoint x="950" y="180"/>
                            <mxPoint x="950" y="230"/>
                        </Array>
                    </mxGeometry>
                </mxCell>
                <mxCell id="74" value="UDP/TCP Over IP" style="edgeLabel;html=1;align=center;verticalAlign=middle;resizable=0;points=[];" parent="72" vertex="1" connectable="0">
                    <mxGeometry x="-0.3551" y="3" relative="1" as="geometry">
                        <mxPoint as="offset"/>
                    </mxGeometry>
                </mxCell>
                <mxCell id="73" value="" style="shape=link;html=1;strokeColor=#FFFFFF;exitX=1;exitY=1;exitDx=0;exitDy=0;entryX=0;entryY=0.5;entryDx=0;entryDy=0;entryPerimeter=0;" parent="1" source="33" target="61" edge="1">
                    <mxGeometry width="100" relative="1" as="geometry">
                        <mxPoint x="860" y="190" as="sourcePoint"/>
                        <mxPoint x="1039.5" y="240" as="targetPoint"/>
                        <Array as="points">
                            <mxPoint x="830" y="360"/>
                        </Array>
                    </mxGeometry>
                </mxCell>
                <mxCell id="75" value="UDP/TCP Over IP" style="edgeLabel;html=1;align=center;verticalAlign=middle;resizable=0;points=[];" parent="73" vertex="1" connectable="0">
                    <mxGeometry x="0.6713" y="-1" relative="1" as="geometry">
                        <mxPoint x="-30" y="-1" as="offset"/>
                    </mxGeometry>
                </mxCell>
                <mxCell id="76" value="" style="endArrow=none;dashed=1;html=1;dashPattern=1 3;strokeWidth=2;strokeColor=#FFFFFF;" edge="1" parent="1">
                    <mxGeometry width="50" height="50" relative="1" as="geometry">
                        <mxPoint x="40" y="30" as="sourcePoint"/>
                        <mxPoint x="614" y="32" as="targetPoint"/>
                    </mxGeometry>
                </mxCell>
                <mxCell id="77" value="" style="endArrow=none;dashed=1;html=1;dashPattern=1 3;strokeWidth=2;strokeColor=#FFFFFF;" edge="1" parent="1">
                    <mxGeometry width="50" height="50" relative="1" as="geometry">
                        <mxPoint x="40" y="330" as="sourcePoint"/>
                        <mxPoint x="614" y="332" as="targetPoint"/>
                    </mxGeometry>
                </mxCell>
                <mxCell id="78" value="" style="endArrow=none;dashed=1;html=1;dashPattern=1 3;strokeWidth=2;strokeColor=#FFFFFF;" edge="1" parent="1">
                    <mxGeometry width="50" height="50" relative="1" as="geometry">
                        <mxPoint x="40" y="30" as="sourcePoint"/>
                        <mxPoint x="40" y="330" as="targetPoint"/>
                    </mxGeometry>
                </mxCell>
                <mxCell id="79" value="" style="endArrow=none;dashed=1;html=1;dashPattern=1 3;strokeWidth=2;strokeColor=#FFFFFF;" edge="1" parent="1">
                    <mxGeometry width="50" height="50" relative="1" as="geometry">
                        <mxPoint x="610" y="30" as="sourcePoint"/>
                        <mxPoint x="610" y="330" as="targetPoint"/>
                    </mxGeometry>
                </mxCell>
                <mxCell id="80" value="SBC" style="text;html=1;strokeColor=none;fillColor=none;align=center;verticalAlign=middle;whiteSpace=wrap;rounded=0;" vertex="1" parent="1">
                    <mxGeometry x="52" y="285" width="60" height="30" as="geometry"/>
                </mxCell>
            </root>
        </mxGraphModel>
    </diagram>
</mxfile>